<svg width="32" height="32" viewBox="0 0 32 32" fill="none" xmlns="http://www.w3.org/2000/svg">
<path fill-rule="evenodd" clip-rule="evenodd" d="M22.4646 12.08C22.9729 12.6128 22.953 13.4568 22.4202 13.9651L15.0827 20.9651C14.5672 21.4568 13.7562 21.4565 13.2412 20.9643L9.57866 17.4643C9.04628 16.9555 9.02713 16.1115 9.53589 15.5791C10.0446 15.0468 10.8886 15.0276 11.421 15.5364L14.1631 18.1568L20.5795 12.0356C21.1123 11.5273 21.9563 11.5472 22.4646 12.08Z" fill="#FAB300"/>
<path fill-rule="evenodd" clip-rule="evenodd" d="M15.9998 5.33366C10.1088 5.33366 5.33317 10.1093 5.33317 16.0003C5.33317 21.8914 10.1088 26.667 15.9998 26.667C21.8909 26.667 26.6665 21.8914 26.6665 16.0003C26.6665 10.1093 21.8909 5.33366 15.9998 5.33366ZM2.6665 16.0003C2.6665 8.63653 8.63604 2.66699 15.9998 2.66699C23.3636 2.66699 29.3332 8.63653 29.3332 16.0003C29.3332 23.3641 23.3636 29.3337 15.9998 29.3337C8.63604 29.3337 2.6665 23.3641 2.6665 16.0003Z" fill="#FAB300"/>
</svg>
